<svg xmlns="http://www.w3.org/2000/svg" viewBox="0 0 413.29 137.42"><defs><style>.cls-1{fill:none;}.cls-1,.cls-2{stroke:#233b1e;stroke-linecap:round;stroke-linejoin:round;stroke-width:1.5px;}.cls-2{fill:#cccc89;}.cls-3{font-size:46.18px;fill:#233b1e;font-family:Lora-Bold, Lora;font-weight:700;letter-spacing:0.02em;}.cls-4{letter-spacing:0.02em;}.cls-5{letter-spacing:0.03em;}.cls-6{letter-spacing:0.02em;}.cls-7{letter-spacing:0.02em;}</style></defs><g id="Layer_2" data-name="Layer 2"><g id="Layer_1-2" data-name="Layer 1"><path class="cls-1" d="M77.24,130a68,68,0,0,1,.23-49.57H60a65.93,65.93,0,0,1,4.79,25.08A66.13,66.13,0,0,1,60.18,130"/><circle class="cls-2" cx="68.71" cy="45.84" r="28.58" transform="translate(-12.29 62.01) rotate(-45)"/><circle class="cls-2" cx="68.71" cy="45.84" r="22.87"/><circle class="cls-2" cx="68.71" cy="45.84" r="17.15" transform="translate(-12.29 62.01) rotate(-45)"/><circle class="cls-2" cx="68.71" cy="45.84" r="11.43" transform="translate(-12.71 59.78) rotate(-43.42)"/><path class="cls-2" d="M74.43,45.84a5.72,5.72,0,1,0-5.72,5.72A5.72,5.72,0,0,0,74.43,45.84Z"/><circle class="cls-2" cx="93.15" cy="67" r="28.58" transform="translate(-13.06 23.57) rotate(-13.49)"/><circle class="cls-2" cx="93.15" cy="67" r="22.87" transform="translate(-16.42 32.93) rotate(-18.45)"/><circle class="cls-2" cx="93.15" cy="67" r="17.15" transform="translate(-12.99 23.42) rotate(-13.4)"/><circle class="cls-2" cx="93.15" cy="67" r="11.43" transform="translate(6.44 142.14) rotate(-76.64)"/><path class="cls-2" d="M98.87,67a5.72,5.72,0,1,0-5.72,5.71A5.72,5.72,0,0,0,98.87,67Z"/><ellipse class="cls-2" cx="43.16" cy="67" rx="27.48" ry="28.58"/><ellipse class="cls-2" cx="43.16" cy="67" rx="21.98" ry="22.87"/><ellipse class="cls-2" cx="43.16" cy="67" rx="16.49" ry="17.15"/><ellipse class="cls-2" cx="43.16" cy="67" rx="10.99" ry="11.43"/><path class="cls-2" d="M48.66,67a5.5,5.5,0,1,0-5.5,5.71A5.61,5.61,0,0,0,48.66,67Z"/><circle class="cls-1" cx="68.71" cy="68.71" r="61.93"/><circle class="cls-1" cx="68.71" cy="68.71" r="67.96"/><text class="cls-3" transform="translate(146.31 81.78)">G<tspan class="cls-4" x="35.93" y="0">r</tspan><tspan class="cls-5" x="59.11" y="0">ee</tspan><tspan class="cls-6" x="111.57" y="0">n</tspan><tspan x="141.82" y="0">G</tspan><tspan class="cls-4" x="177.75" y="0">r</tspan><tspan class="cls-7" x="200.93" y="0">o</tspan><tspan class="cls-5" x="228.13" y="0">w</tspan></text></g></g></svg>