<svg width="258" height="328" viewBox="0 0 258 328" fill="none" xmlns="http://www.w3.org/2000/svg">
<g clip-path="url(#clip0_40_1129)">
<path d="M189 212.94C189 212.94 166.42 246 127.31 235.59C126.24 235.31 125.16 234.99 124.07 234.59C124.07 234.64 145.1 200.67 189 212.94Z" fill="#007233"/>
<g style="mix-blend-mode:multiply" opacity="0.25">
<path d="M181.87 215.16C181.87 215.16 144.65 219.52 127.31 235.59C126.24 235.31 125.16 234.99 124.07 234.59C124.07 234.64 147.47 213.22 181.87 215.16Z" fill="#231F20"/>
</g>
<path d="M126.77 213.51C125.75 213.77 124.75 214 123.77 214.2C86.0001 221.82 81.5601 181.34 81.5601 181.34C115.35 182.15 124.44 205.26 126.34 211.8C126.65 212.88 126.77 213.51 126.77 213.51Z" fill="#007233"/>
<g style="mix-blend-mode:multiply" opacity="0.25">
<path d="M126.77 213.51C125.75 213.77 124.75 214 123.77 214.2C119.2 208.99 108.38 198.65 84.77 183.8C85.39 184 104.77 190.35 126.31 211.8C126.65 212.88 126.77 213.51 126.77 213.51Z" fill="#231F20"/>
</g>
<path d="M197.94 136.46C184.872 149.505 167.694 157.627 149.319 159.45C130.945 161.272 112.506 156.683 97.13 146.46C95.87 145.627 94.6366 144.753 93.43 143.84C90.7193 141.803 88.1438 139.591 85.72 137.22C85.45 136.97 85.17 136.7 84.9 136.43C81.4221 132.955 78.269 129.169 75.48 125.12C73.4896 122.22 71.6956 119.19 70.11 116.05C69.94 115.72 69.78 115.4 69.62 115.05C62.266 99.991 59.8269 83.0026 62.647 66.4828C65.4671 49.963 73.4039 34.746 85.3373 22.9795C97.2706 11.2129 112.598 3.49114 129.156 0.903919C145.714 -1.6833 162.666 0.994723 177.62 8.56001C180.33 9.94607 182.961 11.4818 185.5 13.16L186.67 13.95C190.723 16.7299 194.509 19.8801 197.98 23.36C198.25 23.63 198.52 23.9 198.78 24.18C200.693 26.1406 202.502 28.2001 204.2 30.35C204.6 30.86 205 31.35 205.39 31.9C206.31 33.1067 207.183 34.34 208.01 35.6C218.248 50.9847 222.84 69.4415 221.004 87.8301C219.168 106.219 211.018 123.403 197.94 136.46Z" fill="#E28B00"/>
<path d="M207.2 79.93C207.198 91.3403 204.229 102.554 198.584 112.47C192.939 122.386 184.812 130.663 175.001 136.489C165.19 142.314 154.033 145.489 142.624 145.699C131.216 145.91 119.949 143.15 109.93 137.69C108.58 136.96 107.25 136.18 105.93 135.34C103.051 133.503 100.322 131.44 97.7701 129.17C93.8033 125.664 90.2744 121.692 87.2601 117.34C86.4601 116.18 85.7001 115 84.9701 113.79C83.8767 111.977 82.8767 110.113 81.9701 108.2C76.265 96.2144 74.3184 82.7834 76.386 69.6713C78.4536 56.5591 84.4386 44.3789 93.555 34.7303C102.671 25.0817 114.493 18.416 127.467 15.6086C140.441 12.8012 153.96 13.9835 166.25 19C167.41 19.47 168.55 20 169.67 20.52C172.859 22.0278 175.919 23.7937 178.82 25.8C180.153 26.72 181.44 27.6834 182.68 28.69C185.555 30.9988 188.231 33.5444 190.68 36.3C192.949 38.854 195.009 41.5861 196.84 44.47C197.49 45.47 198.1 46.47 198.69 47.52C198.86 47.82 199.03 48.13 199.19 48.44C204.477 58.0917 207.232 68.9253 207.2 79.93Z" fill="#FFCE00"/>
<path d="M165.43 70.29H179.51L181.88 62L179.51 59.63L164.61 62C163.909 59.7317 162.823 57.6007 161.4 55.7H178.33L181.87 47.44L179.51 45.07L106.31 53.34L108.67 55.7H144.88C147.074 55.7007 149.228 56.2845 151.122 57.3915C153.017 58.4984 154.583 60.0889 155.66 62L107.49 67.9L109.86 70.26H157.08C156.569 73.1251 155.067 75.7194 152.837 77.5893C150.607 79.4593 147.79 80.486 144.88 80.49H112.21V90.49L148.92 127.18H160.6L122.19 88.78H144.88C149.983 88.7744 154.903 86.8835 158.696 83.4706C162.489 80.0577 164.888 75.3636 165.43 70.29Z" fill="#BC6F00"/>
<path d="M179.51 59.67L177.73 65.89L177.15 67.89H163.07C162.611 72.1451 160.847 76.154 158.02 79.3675C155.193 82.5809 151.442 84.8417 147.28 85.84C145.72 86.2072 144.123 86.3918 142.52 86.39H119.82L128.18 94.75L132.53 99.11L138.53 105.11L158.26 124.83H146.55L132.66 111L129.5 107.84L125.66 104L122.34 100.68L117.21 95.56L109.84 88.19V78.19H142.51C143.371 78.1921 144.229 78.1015 145.07 77.92C147.417 77.4213 149.569 76.2529 151.266 74.5561C152.963 72.8594 154.131 70.7072 154.63 68.36C154.63 68.22 154.69 68.09 154.71 67.95H107.49L109.85 59.69H153.3C152.788 58.7905 152.166 57.9576 151.45 57.21C150.095 55.7939 148.422 54.721 146.57 54.08C145.266 53.6207 143.893 53.3873 142.51 53.39H106.3L109.84 45.13H179.5L176 53.37H159C160.427 55.2683 161.513 57.4 162.21 59.67H179.51Z" fill="#E28B00"/>
<g style="mix-blend-mode:overlay" opacity="0.25">
<path d="M155.36 81.94L158.69 78.61C157.711 79.8438 156.594 80.9612 155.36 81.94Z" fill="white"/>
</g>
<path d="M189 34.55C176.561 22.6829 159.971 16.1578 142.781 16.3719C125.591 16.586 109.167 23.5222 97.0283 35.6954C84.8891 47.8686 77.9988 64.311 77.8327 81.5016C77.6667 98.6923 84.2382 115.265 96.14 127.67C89.7405 121.638 84.6155 114.384 81.068 106.337C77.5205 98.2901 75.6226 89.6135 75.4865 80.8203C75.3504 72.0271 76.9789 63.2959 80.2756 55.143C83.5723 46.9901 88.4704 39.581 94.6802 33.3539C100.89 27.1267 108.285 22.208 116.429 18.8884C124.573 15.5689 133.299 13.916 142.093 14.0276C150.886 14.1391 159.568 16.0127 167.625 19.5377C175.682 23.0627 182.95 28.1674 189 34.55Z" fill="#BC6F00"/>
<g style="mix-blend-mode:overlay" opacity="0.25">
<path d="M186.67 16C177.357 9.26321 166.662 4.68256 155.36 2.59C134.3 -1.33 105.46 2.24 82.9999 28.31C39.6699 78.61 78.7199 129.52 86.9999 135.31C86.9999 135.31 126.78 132.63 140 102.31C153.22 71.99 123.88 35.31 186.67 16Z" fill="white"/>
</g>
<g style="mix-blend-mode:multiply" opacity="0.15">
<path d="M95 140.64C95 140.64 114 156.22 137.81 156.75C161.62 157.28 197.67 144.31 211 114C224.33 83.69 217.84 56.24 211 43.34C211 43.34 195.67 49.55 186.67 70.94C177.67 92.33 181.33 121 165.67 135.34C150.01 149.68 122.67 153.31 95 140.64Z" fill="#231F20"/>
</g>
<g style="mix-blend-mode:overlay" opacity="0.25">
<path d="M72 110.31C69.42 111.17 65.39 89.31 65.39 75.93C65.39 54.4 75.92 34.68 92.39 20.93C110.87 5.50003 133.67 1.23003 157.09 4.69003C154.183 4.52033 151.276 5.03127 148.601 6.18223C145.926 7.33319 143.556 9.09242 141.68 11.32C140.81 12.38 129.05 12.21 126.94 12.67C111.651 16.0192 98.0772 24.7582 88.7 37.29C82.6565 45.476 78.4459 54.867 76.3546 64.825C74.2633 74.783 74.3402 85.0744 76.58 95C77.0342 97.152 77.6458 99.2677 78.41 101.33C78.5019 103.329 77.92 105.3 76.7577 106.928C75.5954 108.557 73.9199 109.748 72 110.31Z" fill="white"/>
</g>
<path d="M148.17 162.69C109.47 165.78 87.9999 150 80.9999 143.66C80.0975 142.861 79.2427 142.009 78.4399 141.11C106.59 137.53 125.96 145.88 137.02 153.22H137.09H137.14C141.229 155.862 144.94 159.047 148.17 162.69Z" fill="#00843C"/>
<path d="M198.67 143.77C198.67 143.77 170 168.13 128.79 161.53V161.48C130.08 160.17 153.52 136.27 198.67 143.77Z" fill="#009245"/>
<path d="M145.43 277L140.38 282C136.772 278.35 133.56 274.327 130.8 270C112.5 241.22 123.05 209.78 129.11 196.45C136.93 179.24 133.69 171.14 133.65 171.06L140.08 168.06C140.545 169.098 140.881 170.19 141.08 171.31C141.92 175.83 142.08 185.01 135.59 199.31C129.23 213.2 117.55 248.57 145.43 277Z" fill="#007233"/>
<g style="mix-blend-mode:overlay" opacity="0.25">
<path d="M198.67 143.77C198.67 143.77 162.05 142 128.8 161.52V161.47C130.08 160.17 153.52 136.27 198.67 143.77Z" fill="white"/>
</g>
<g style="mix-blend-mode:overlay" opacity="0.25">
<path d="M137 153.22C135.17 152.22 112.31 140.28 80.9999 143.66C80.0975 142.861 79.2427 142.009 78.4399 141.11C106.56 137.53 125.93 145.88 137 153.22Z" fill="white"/>
</g>
<g style="mix-blend-mode:multiply" opacity="0.25">
<path d="M145.43 277L140.38 282C136.772 278.35 133.561 274.327 130.8 270C131.454 268.975 132.189 268.006 133 267.1C133 267.1 126 254.85 124.08 234.64C122.16 214.43 135.54 187.1 137 181.34C138.46 175.58 137 171.76 137 171.76L141 171.28C141.84 175.8 142 184.98 135.51 199.28C129.23 213.2 117.55 248.57 145.43 277Z" fill="#231F20"/>
</g>
<path d="M152.26 162.41C152.26 162.41 147.37 174.26 137.81 174.26C135.549 174.247 133.339 173.588 131.44 172.36C126.08 169.01 123.36 162.36 123.36 162.36C123.36 162.36 130.65 156.17 145.48 160.05C147.792 160.679 150.057 161.468 152.26 162.41Z" fill="#007233"/>
<g style="mix-blend-mode:multiply" opacity="0.25">
<path d="M152.26 162.41C152.26 162.41 147.37 174.26 137.81 174.26C135.549 174.247 133.339 173.588 131.44 172.36C146.24 172.36 145.72 162.12 145.44 160.1C147.764 160.711 150.043 161.483 152.26 162.41Z" fill="#231F20"/>
</g>
<path d="M239 333.87C240 338.47 230 339.3 226.5 340.38C223 341.46 207.5 345.3 208.76 347.13C210.02 348.96 207.97 353.13 199.48 351.06C190.99 348.99 181.88 356.4 181.88 356.4C181.88 356.4 178.59 356.1 174.93 355.97C172.11 355.781 169.277 355.926 166.49 356.4C164.494 356.947 162.446 357.282 160.38 357.4C155.376 357.575 150.366 357.24 145.43 356.4C133.17 354.63 120.14 363.85 113.37 361.47C106.6 359.09 111.37 357.47 93.43 352.47C75.49 347.47 68.35 347.47 65.68 347.97C65.04 348.08 63.02 348.48 60.24 348.9C51.35 350.25 34.73 351.9 30.96 345.9C25.96 337.98 24.5 333.9 24.5 333.9C24.5 333.9 2.5 334.81 0 333.9C0 333.9 15.5 335.52 18 330.51C20.5 325.5 31.5 320.81 36 322.15C40.5 323.49 57.07 319.99 57.79 316.49C58.51 312.99 63.5 310 63.5 310C63.5 310 81.61 306.5 84.8 299C87.99 291.5 96.8 286.85 100.28 286.79C103.76 286.73 115.41 285.67 115.45 281.58C115.49 277.49 121.36 282.01 125.45 279.01C128.82 276.52 129.38 273.95 131.45 273.32C131.952 273.17 132.48 273.126 133 273.19C136.51 273.5 140.06 274.19 140.29 271.09C140.29 271.09 150.29 272.53 152.98 276.34C155.67 280.15 161.38 292.22 163.75 290.55C166.12 288.88 182.3 291.85 184.15 293.68C186 295.51 186.57 307.43 189.04 306.47C191.51 305.51 197.49 308 201.75 310C206.01 312 242 313.14 245 315.06C248 316.98 256 322.78 258 322.12C258 322.12 238 329.28 239 333.87Z" fill="#603813"/>
<g style="mix-blend-mode:multiply" opacity="0.15">
<path d="M239 333.87C240 338.47 230 339.3 226.5 340.38C223 341.46 207.5 345.3 208.76 347.13C210.02 348.96 207.97 353.13 199.48 351.06C190.99 348.99 181.88 356.4 181.88 356.4C181.88 356.4 178.59 356.1 174.93 355.97L176.49 355.56C177.98 355.14 182 351.97 181.61 351.06C181.22 350.15 191.33 345.3 193.77 341.06C196.21 336.82 189 336 187.32 333.4C185.64 330.8 193.67 323.97 195.62 323.72C197.57 323.47 190 314.64 186.62 312.59C183.24 310.54 175.31 313.64 174.94 312.1C174.57 310.56 171.31 305.64 169.94 304.64C168.57 303.64 156.18 301.3 156.18 301.3C155.532 300.777 155.029 300.095 154.721 299.321C154.413 298.546 154.309 297.706 154.42 296.88C154.87 294.12 157.3 292.3 152.94 288.73C148.58 285.16 144.64 278.64 137.85 279.24C131.06 279.84 131.41 273.29 131.41 273.29C131.912 273.14 132.44 273.096 132.96 273.16C136.47 273.47 140.02 274.16 140.25 271.06C140.25 271.06 150.25 272.5 152.94 276.31C155.63 280.12 161.34 292.19 163.71 290.52C166.08 288.85 182.26 291.82 184.11 293.65C185.96 295.48 186.53 307.4 189 306.44C191.47 305.48 197.45 307.97 201.71 309.97C205.97 311.97 242 313.14 245 315.06C248 316.98 256 322.78 258 322.12C258 322.12 238 329.28 239 333.87Z" fill="#231F20"/>
</g>
<g style="mix-blend-mode:overlay" opacity="0.25">
<path d="M129.28 281C129.28 281 131.97 285.6 130.65 287.27C129.33 288.94 131.65 293.95 132.83 293.61C134.01 293.27 139 293.61 139 293.61L145 299.25C145 299.25 139 294.95 135.34 296.44C131.68 297.93 126.91 294.93 122.82 293.49C118.73 292.05 116.59 291.31 115.47 290.11C114.35 288.91 118.86 286.44 122.11 288.68C122.11 288.68 119.19 282.14 119.44 281.86C119.69 281.58 127.57 284.11 129.28 281Z" fill="white"/>
</g>
<g style="mix-blend-mode:multiply" opacity="0.15">
<path d="M172.46 330.48C170.67 331.97 167.61 333.89 169.97 334.77C172.33 335.65 172.46 340.06 172.46 340.06L169.24 346.24V351.4C169.24 351.4 161.46 353.49 160.38 357.4C155.376 357.575 150.366 357.24 145.43 356.4C133.17 354.63 120.14 363.85 113.37 361.47C106.6 359.09 111.37 357.47 93.43 352.47C75.49 347.47 68.35 347.47 65.68 347.97C65.04 348.08 63.02 348.48 60.24 348.9L57.79 347.11L107.57 314.58L144.98 310.58C144.98 310.58 169.98 321.3 172.46 323.27C174.94 325.24 174.26 329 172.46 330.48Z" fill="#231F20"/>
</g>
</g>
<defs>
<clipPath id="clip0_40_1129">
<rect width="258" height="361.87" fill="white"/>
</clipPath>
</defs>
</svg>
