<svg width="84" height="84" viewBox="0 0 84 84" fill="none" xmlns="http://www.w3.org/2000/svg">
<path d="M70.0362 66.4635C53.5208 79.18 30.4847 79.0782 14.0823 66.2165L26.1042 60.581C26.6767 60.3119 27.2262 59.9963 27.7471 59.6373C27.9052 59.5286 28.0633 59.4149 28.214 59.2963C29.5224 58.2952 30.5994 57.0236 31.3715 55.5682C31.9551 54.45 32.3428 53.24 32.5178 51.9908C32.6385 51.1803 32.6996 50.3619 32.7006 49.5425C32.7006 48.1293 32.624 46.7161 32.6092 45.3005C32.5993 44.5165 32.5911 43.7333 32.5845 42.9509L33.0786 43.198L34.3633 43.8626L34.9587 43.9639L41.8467 45.1349L49.5352 46.4443L49.7675 54.3502L49.844 56.9345L49.8811 58.1895V58.271L52.8705 59.4866L70.0362 66.4635Z" fill="#DE8276"/>
<path d="M49.8317 57.7794C48.9826 57.9255 48.109 57.7902 47.3438 57.394L32.6018 45.3425C32.5845 44.7841 32.5697 45.3697 32.5623 44.8113C32.5524 44.0273 32.5442 43.2441 32.5376 42.4618L33.0317 42.7089L34.3164 43.3734L34.9118 43.4747L41.7998 44.6458L49.4883 45.9552L49.7205 53.8611L49.7971 56.4453L49.8342 57.7004V57.7819L49.8317 57.7794Z" fill="#A76962"/>
<path d="M57.441 36.2977C57.0569 36.6994 56.6358 37.0642 56.1835 37.3872C53.6141 39.2476 50.1849 39.8578 47.2548 40.8608C46.0195 41.2833 32.624 45.0905 32.624 45.9181C32.624 45.7378 31.3121 44.4358 29.6593 42.8546C23.9585 37.3947 22.058 29.0639 24.8268 21.6718C27.5222 14.5886 36.1149 9.70673 43.3117 8.57767C46.7384 8.04155 50.805 7.74261 53.9698 9.38555C55.5881 10.228 56.9345 11.4559 58.1698 12.8172C58.5553 13.2471 58.9291 13.686 59.2915 14.134C59.4471 14.3218 59.6003 14.5096 59.751 14.6998C65.3765 21.7657 63.3828 30.0545 57.441 36.2977Z" fill="url(#paint0_linear_41_1403)"/>
<path d="M57.4411 36.2977C57.0569 36.6994 56.6359 37.0642 56.1835 37.3872C56.078 37.2034 55.9832 37.0136 55.8994 36.8189C55.2472 35.3366 54.9112 33.7282 54.6641 32.1248C54.2794 29.7914 54.0163 27.4395 53.876 25.0787C53.6512 21.2888 52.0329 19.4087 55.2521 16.4539C56.4106 15.3922 57.7902 14.6007 59.2915 14.1365C59.4472 14.3242 59.6004 14.512 59.7511 14.7022C65.3766 21.7657 63.3828 30.0545 57.4411 36.2977Z" fill="url(#paint1_linear_41_1403)"/>
<ellipse cx="30.1534" cy="36.0383" rx="4.2" ry="4.2" fill="#E18477"/>
<ellipse cx="31.4875" cy="36.0383" rx="3.76024" ry="3.76023" fill="#A76962"/>
<path d="M31.8013 32.0557C32.0064 34.7388 31.999 38.0148 32.0706 38.9733C32.2567 41.3764 32.4412 43.7786 32.624 46.18L49.0386 55.7684C51.3945 56.649 54.0339 55.5956 55.136 53.3349C57.4979 48.4975 61.2878 40.8584 60.7887 38.0172C60.0475 33.8172 58.0711 32.3349 58.0711 32.3349L58.8938 27.4085C59.7264 22.4006 58.0093 17.6596 52.159 17.1111C50.9237 16.9975 49.5475 17.2322 48.8138 18.2179C46.8373 20.8763 47.9763 24.1473 45.0091 26.6179C41.407 29.59 33.3701 30.8871 31.4875 28.4882C31.4875 28.4882 31.6605 30.1855 31.8013 32.0557Z" fill="#DE8276"/>
<path d="M44.1196 42.5359C45.3067 43.8615 46.934 44.7121 48.7001 44.9299" stroke="#00214E"/>
<path d="M49.9553 30.8723C49.9355 30.9588 53.256 39.7986 53.256 39.7986L48.8237 40.0135" stroke="#00214E"/>
<path d="M39.4602 29.1577C41.7473 28.6847 44.0997 28.6178 46.41 28.9601" stroke="#00214E"/>
<path d="M54.0491 29.1898C55.461 28.8608 56.9164 28.7599 58.3602 28.8909" stroke="#00214E"/>
<path d="M70.0362 66.4636C53.5208 79.18 30.4847 79.0783 14.0823 66.2165L26.1042 60.5811C26.6767 60.3119 27.2262 59.9963 27.7471 59.6373C27.9052 59.5286 28.0633 59.415 28.214 59.2964C29.5224 58.2953 30.5994 57.0236 31.3715 55.5683C31.9551 54.45 32.3428 53.24 32.5178 51.9908C32.6923 52.1599 32.8753 52.3199 33.0663 52.4701C34.5811 53.5903 36.2252 54.5243 37.963 55.252C38.8067 55.604 39.6694 55.9083 40.5472 56.1637C43.1917 56.9348 45.9528 57.2268 48.7002 57.0259C49.0806 56.9963 49.4636 56.9592 49.844 56.932L49.8811 58.1871V58.2686L52.8705 59.4841L70.0362 66.4636Z" fill="#00214E"/>
<path d="M42.8275 31.9346C44.3346 31.9346 44.3346 34.252 42.8275 34.2643H42.7584C41.2488 34.2643 41.2488 31.9469 42.7584 31.9346H42.8251H42.8275Z" fill="#00214E"/>
<path d="M55.2126 31.5912C56.611 31.6035 56.611 33.7406 55.2126 33.753H55.1484C53.75 33.753 53.75 31.6035 55.1484 31.5912H55.2126Z" fill="#00214E"/>
<defs>
<linearGradient id="paint0_linear_41_1403" x1="23.5569" y1="45.9278" x2="63.0814" y2="45.9278" gradientUnits="userSpaceOnUse">
<stop stop-color="#16243F"/>
<stop offset="1" stop-color="#6878B1"/>
</linearGradient>
<linearGradient id="paint1_linear_41_1403" x1="46.8348" y1="29.4209" x2="63.4068" y2="34.1225" gradientUnits="userSpaceOnUse">
<stop stop-color="#16243F"/>
<stop offset="1" stop-color="#6878B1"/>
</linearGradient>
</defs>
</svg>
