<svg width="22" height="32" viewBox="0 0 19 20" fill="none" xmlns="http://www.w3.org/2000/svg">
<path d="M12.5492 7.91431L11.4405 6.74934C11.2958 6.60653 11.1062 6.52458 10.9077 6.51909C10.7093 6.51361 10.5158 6.58496 10.3642 6.71958L6.7225 10.5461C6.5917 10.6847 6.51027 10.8663 6.49185 11.0606L6.31786 12.8335C6.31241 12.8958 6.3201 12.9586 6.34039 13.0174C6.36067 13.0761 6.39304 13.1295 6.43521 13.1736C6.47301 13.2131 6.51785 13.2442 6.56715 13.2654C6.61645 13.2865 6.66924 13.2973 6.7225 13.2969H6.75891L8.44623 13.1354C8.63106 13.116 8.80394 13.0305 8.93583 12.893L12.5775 9.06652C12.7189 8.90961 12.7953 8.70024 12.7899 8.48426C12.7846 8.26829 12.6981 8.06333 12.5492 7.91431ZM8.37339 12.285L7.1595 12.4041L7.26875 11.1286L9.55492 8.75614L10.6474 9.9041L8.37339 12.285ZM11.1734 9.33437L10.089 8.19492L10.8781 7.34458L11.9827 8.50529L11.1734 9.33437Z" fill="white"/>
<path d="M7.28714 17.8157H11.819C15.5955 17.8157 17.1061 16.2341 17.1061 12.2802V7.53549C17.1061 3.58157 15.5955 2 11.819 2H7.28714C3.51061 2 2 3.58157 2 7.53549V12.2802C2 16.2341 3.51061 17.8157 7.28714 17.8157Z" stroke="white" stroke-width="2.5" stroke-linecap="round" stroke-linejoin="round"/>
</svg>
