<svg width="32" height="24" viewBox="0 0 32 24" fill="none" xmlns="http://www.w3.org/2000/svg">
<path d="M31 2.00794H1C0.974841 2.00794 0.921996 1.99721 0.862807 1.92802C0.800533 1.85523 0.75 1.73465 0.75 1.58899C0.75 1.44333 0.800533 1.32276 0.862807 1.24996C0.921996 1.18078 0.974841 1.17004 1 1.17004H31C31.0252 1.17004 31.078 1.18078 31.1372 1.24996C31.1995 1.32276 31.25 1.44333 31.25 1.58899C31.25 1.73466 31.1995 1.85523 31.1372 1.92802C31.078 1.99721 31.0252 2.00794 31 2.00794Z" fill="#213B1C" stroke="black" stroke-width="1.5"/>
<path d="M1 11.6906H31C31.0252 11.6906 31.078 11.7013 31.1372 11.7705C31.1995 11.8433 31.25 11.9638 31.25 12.1095C31.25 12.2552 31.1995 12.3757 31.1372 12.4485C31.078 12.5177 31.0252 12.5285 31 12.5285H1C0.974839 12.5285 0.921994 12.5177 0.862807 12.4485C0.800534 12.3757 0.75 12.2552 0.75 12.1095C0.75 11.9638 0.800533 11.8433 0.862807 11.7705C0.921996 11.7013 0.974841 11.6906 1 11.6906Z" fill="#213B1C" stroke="black" stroke-width="1.5"/>
<path d="M1 22.2112H31C31.0252 22.2112 31.078 22.2219 31.1372 22.2911C31.1995 22.3639 31.25 22.4845 31.25 22.6301C31.25 22.7758 31.1995 22.8964 31.1372 22.9692C31.078 23.0383 31.0252 23.0491 31 23.0491H1C0.974839 23.0491 0.921994 23.0383 0.862807 22.9692C0.800534 22.8964 0.75 22.7758 0.75 22.6301C0.75 22.4845 0.800534 22.3639 0.862807 22.2911C0.921994 22.2219 0.974839 22.2112 1 22.2112Z" fill="#213B1C" stroke="black" stroke-width="1.5"/>
</svg>
